HIERARCHY
ROOT Hips
{
  OFFSET -125.086 92.215 135.881
  CHANNELS 6 Xposition Yposition Zposition Zrotation Xrotation Yrotation
  JOINT LeftUpLeg
  {
    OFFSET 8.64259 1.95398 -2.38835
    CHANNELS 3 Zrotation Xrotation Yrotation
    JOINT LeftLeg
    {
      OFFSET 43.7702 0 0
      CHANNELS 3 Zrotation Xrotation Yrotation
      JOINT LeftFoot
      {
        OFFSET 40.6238 0 0
        CHANNELS 3 Zrotation Xrotation Yrotation
        JOINT LeftToeBase
        {
          OFFSET 12.7242 0 0
          CHANNELS 3 Zrotation Xrotation Yrotation
          End Site
          {
            OFFSET 0 0 0
          }
        }
      }
    }
  }
  JOINT RightUpLeg
  {
    OFFSET -8.2249 1.95398 -2.59336
    CHANNELS 3 Zrotation Xrotation Yrotation
    JOINT RightLeg
    {
      OFFSET 43.5653 0 0
      CHANNELS 3 Zrotation Xrotation Yrotation
      JOINT RightFoot
      {
        OFFSET 40.6238 0 0
        CHANNELS 3 Zrotation Xrotation Yrotation
        JOINT RightToeBase
        {
          OFFSET 12.7242 0 0
          CHANNELS 3 Zrotation Xrotation Yrotation
          End Site
          {
            OFFSET 0 0 0
          }
        }
      }
    }
  }
  JOINT Spine
  {
    OFFSET 0.165834 0.87714 6.61349
    CHANNELS 3 Zrotation Xrotation Yrotation
    JOINT Spine1
    {
      OFFSET 7.38963 1.71661e-005 0
      CHANNELS 3 Zrotation Xrotation Yrotation
      JOINT Spine2
      {
        OFFSET 11.9445 1.14441e-005 0
        CHANNELS 3 Zrotation Xrotation Yrotation
        JOINT Spine3
        {
          OFFSET 14.7254 4.19617e-005 0
          CHANNELS 3 Zrotation Xrotation Yrotation
          JOINT Spine4
          {
            OFFSET 10.9679 0 0
            CHANNELS 3 Zrotation Xrotation Yrotation
            JOINT RightShoulder
            {
              OFFSET 2.46616 -1.6653 3.69651
              CHANNELS 3 Zrotation Xrotation Yrotation
              JOINT RightArm
              {
                OFFSET 13.0012 0 0
                CHANNELS 3 Zrotation Xrotation Yrotation
                JOINT RightForeArm
                {
                  OFFSET 28.7848 1.52588e-005 0
                  CHANNELS 3 Zrotation Xrotation Yrotation
                  JOINT RightHand
                  {
                    OFFSET 26.5688 1.52588e-005 0
                    CHANNELS 3 Zrotation Xrotation Yrotation
                    End Site
                    {
                      OFFSET 0 0 0
                    }
                  }
                }
              }
            }
            JOINT LeftShoulder
            {
              OFFSET 2.38034 -1.29275 -3.7523
              CHANNELS 3 Zrotation Xrotation Yrotation
              JOINT LeftArm
              {
                OFFSET 16.3182 6.10352e-005 0
                CHANNELS 3 Zrotation Xrotation Yrotation
                JOINT LeftForeArm
                {
                  OFFSET 27.0901 0 0
                  CHANNELS 3 Zrotation Xrotation Yrotation
                  JOINT LeftHand
                  {
                    OFFSET 24.5451 1.52588e-005 0
                    CHANNELS 3 Zrotation Xrotation Yrotation
                    End Site
                    {
                      OFFSET 0 0 0
                    }
                  }
                }
              }
            }
            JOINT Neck
            {
              OFFSET 5.0226 -0.0266342 0
              CHANNELS 3 Zrotation Xrotation Yrotation
              JOINT Head
              {
                OFFSET 6.69363 2.86102e-005 0
                CHANNELS 3 Zrotation Xrotation Yrotation
                End Site
                {
                  OFFSET 0 0 0
                }
              }
            }
          }
        }
      }
    }
  }
}
MOTION
Frames:	9
Frame Time:	0.0416667
-2.29424 97.7207 47.4147 146.668 -82.9657 149.571 -172.099 -3.0641 92.9967 -12.5911 18.1995 3.36428 57.8326 4.20562 16.2133 42.323 -1.14228 3.74947 175.735 2.1776 89.2311 -17.1355 -2.45939 -0.856168 57.0313 1.88359 15.8411 37.4856 -1.31715 -1.90418 -0.19853 7.23807 -90.4064 12.4163 -0.587491 -0.743249 0.745336 -0.619634 -0.716677 -21.7885 -0.336971 -0.885439 -1.7759 -0.336965 -0.885444 112.34 -55.361 -67.34 31.9241 7.00531 -12.7135 -2.97715 -27.5702 -11.112 -12.6509 -0.744728 1.7081 -72.5119 -47.7933 105.185 -42.8511 -8.88857 -22.521 4.61547 59.3935 0.0117239 -2.92794 -0.0662352 -9.37795 0.00263643 -0.942447 -6.75665 -16.3355 -0.579767 5.32436 
-2.27909 97.7019 47.4352 146.888 -82.9818 149.756 -172.066 -3.10303 92.9819 -12.5281 18.0907 3.30675 57.8992 4.2396 16.2136 42.4987 -1.15449 3.13847 175.637 2.17329 89.1135 -17.13 -2.47839 -0.804288 56.9545 1.95917 16.2006 37.6191 -1.34783 -1.61275 -0.188158 7.23805 -90.4067 12.4074 -0.567051 -0.746757 0.73638 -0.599368 -0.721087 -21.7974 -0.316418 -0.882649 -1.78479 -0.316408 -0.882646 112.322 -55.2728 -67.3502 32.1507 7.38091 -12.7615 -3.30972 -28.2762 -11.1195 -11.513 -0.691088 1.86008 -72.5428 -47.8112 105.135 -43.1032 -9.04856 -22.7694 5.11003 61.4011 0.0124701 -3.65958 -0.0252483 -10.1726 -0.0699176 -1.02936 -6.77378 -16.2536 -0.664417 5.32144 
-2.31907 97.6922 47.3973 146.21 -82.9704 149.103 -172.071 -3.04516 93.0025 -12.4376 17.6991 3.31041 57.942 4.30013 16.1132 42.5078 -1.15743 2.60038 175.674 2.15807 89.2155 -17.0293 -2.62373 -0.782194 57.0616 1.78868 15.3738 37.2331 -1.33765 0.961799 -0.203685 7.23179 -90.4044 12.4053 -0.596887 -0.739557 0.734285 -0.628863 -0.712573 -21.7996 -0.347039 -0.884743 -1.78699 -0.347039 -0.884748 112.245 -55.2436 -67.457 32.2989 7.65366 -12.7444 -3.68563 -29.2758 -11.2565 -11.37 -0.667565 1.70264 -72.529 -47.7124 105.167 -43.3116 -8.77383 -23.3389 5.4078 59.2927 0.0116892 -1.95638 -0.111202 -10.0006 0.113549 -1.04512 -7.54826 -16.6136 -0.683931 6.27381 
-2.3106 97.7012 47.3974 145.295 -83.0539 148.183 -172.244 -3.10779 92.8657 -12.0133 16.8222 3.38438 58.0518 4.43485 15.7035 42.4293 -1.15433 2.25648 175.717 2.26841 89.2301 -17.0242 -2.581 -0.812694 57.0492 1.84413 15.5079 37.2782 -1.32315 -0.0293431 -0.20989 7.2165 -90.402 12.4388 -0.608124 -0.733029 0.767818 -0.639798 -0.705559 -21.7662 -0.359723 -0.881898 -1.75352 -0.359718 -0.881903 112.22 -55.2404 -67.493 32.2994 7.67746 -12.6434 -3.77705 -29.1755 -11.3585 -11.1107 -0.62884 1.45281 -72.5505 -47.7437 105.13 -43.2144 -8.7447 -23.2854 5.37574 59.8739 0.0118929 -1.99057 -0.11023 -10.1816 -0.165582 -1.03263 -7.38384 -16.2114 -0.661896 6.01081 
-2.29848 97.6915 47.4143 146.399 -83.1293 149.267 -171.891 -3.30939 92.9911 -11.4585 16.3259 3.05505 58.1526 4.51874 15.6005 42.0434 -1.1298 1.16444 175.655 2.27354 89.1391 -16.991 -2.52592 -0.788551 56.9909 1.91527 16.0614 36.9358 -1.27528 0.182773 -0.189445 7.21061 -90.3984 12.4354 -0.565901 -0.731618 0.764427 -0.597549 -0.706003 -21.7695 -0.319873 -0.867859 -1.75682 -0.319865 -0.867859 112.267 -55.2477 -67.4264 32.162 7.46349 -12.6664 -3.49356 -28.8365 -11.1682 -11.5257 -0.644948 1.3711 -72.656 -47.6933 104.971 -43.2037 -8.71764 -23.2796 5.39985 59.7694 0.0118557 -2.88849 -0.0638845 -10.2826 -0.227727 -1.01954 -7.47071 -16.106 -0.642573 6.07756 
-2.31657 97.6958 47.3926 146.001 -83.0821 148.879 -171.79 -3.51183 93.0133 -10.9258 15.423 2.95885 58.5246 4.84026 15.1418 41.4163 -1.07913 0.35188 175.702 2.2752 89.2092 -17.0482 -2.62546 -0.809315 57.1879 1.78062 15.4462 36.9325 -1.28433 0.558407 -0.203712 7.2085 -90.3966 12.4287 -0.593436 -0.725444 0.757673 -0.624789 -0.698633 -21.7763 -0.347986 -0.870527 -1.76367 -0.347987 -0.870532 112.218 -55.2794 -67.502 32.0815 7.39628 -12.6949 -3.39155 -28.8314 -11.0755 -11.7435 -0.658428 1.38245 -72.5715 -47.7285 105.099 -43.0732 -8.65575 -23.3224 5.32379 60.1743 0.0120015 -2.00749 -0.10997 -10.4585 -0.0206714 -0.972232 -7.47175 -16.5108 -0.605767 6.09823 
-2.29135 97.6627 47.3718 145.452 -83.0371 148.256 -171.991 -3.68033 92.8043 -10.4809 13.9468 3.0117 58.8158 5.06575 14.4809 40.9648 -1.0314 -0.922372 175.622 2.38705 89.0753 -17.2348 -2.41188 -0.782318 57.1309 1.90551 15.9225 36.9233 -1.27658 0.304342 -0.212518 7.20922 -90.3887 12.4231 -0.607224 -0.708501 0.752108 -0.637812 -0.681102 -21.782 -0.366231 -0.858239 -1.76935 -0.366223 -0.858241 112.154 -55.1968 -67.5818 32.0978 7.341 -12.5651 -3.41685 -28.8155 -11.2477 -11.808 -0.684085 1.60443 -72.6137 -47.7051 105.035 -42.971 -8.26584 -23.2625 5.15394 58.3558 0.0113775 -1.48555 -0.13838 -10.5461 -0.161912 -0.990731 -7.62619 -16.206 -0.620178 6.32152 
-2.32066 97.6611 47.3502 144.764 -82.9952 147.58 -171.873 -3.85871 92.8307 -9.9042 12.7507 2.89498 59.1723 5.37855 13.941 40.2747 -0.950213 -2.03496 175.622 2.52769 89.1302 -17.5443 -2.48549 -0.745681 57.4946 1.73979 15.3243 36.6402 -1.24926 0.882606 -0.226363 7.21135 -90.3856 12.43 -0.633197 -0.698662 0.759089 -0.663334 -0.670129 -21.7751 -0.393958 -0.85664 -1.76249 -0.393954 -0.85665 112.184 -55.2757 -67.5518 31.8962 7.234 -12.6344 -3.24471 -28.8358 -11.0684 -11.7347 -0.686705 1.67675 -72.6006 -47.6669 105.059 -42.8775 -8.17646 -23.2226 5.02595 58.3976 0.011391 -0.763058 -0.173011 -10.2574 -0.273746 -0.997045 -7.64352 -16.1654 -0.622282 6.258 
-2.29588 97.6243 47.364 145.148 -83.15 147.968 -171.822 -3.99609 92.7926 -9.2724 11.157 2.77269 59.468 5.61455 13.2867 40.1451 -0.909905 -3.74693 175.7 2.69942 89.119 -17.6275 -2.39187 -0.832387 57.2759 1.93597 15.9302 37.0409 -1.2933 0.260172 -0.201193 7.21351 -90.3972 12.4447 -0.58856 -0.725662 0.77372 -0.619923 -0.699057 -21.7603 -0.343271 -0.868987 -1.7476 -0.343273 -0.868996 112.127 -55.1054 -67.6055 32.0122 7.35054 -12.5881 -3.40289 -29.017 -11.1972 -11.7226 -0.685789 1.67491 -72.6645 -47.7321 104.953 -43.1166 -8.57275 -23.3876 5.32692 59.6768 0.0118229 -1.28081 -0.144036 -9.9818 -0.138746 -0.974993 -7.64341 -16.2869 -0.618385 6.44139 
